<mxfile host="65bd71144e">
    <diagram id="qoH89M9KnnaxGOaqsm-1" name="Page-1">
        <mxGraphModel dx="914" dy="554" grid="1" gridSize="10" guides="1" tooltips="1" connect="1" arrows="1" fold="1" page="1" pageScale="1" pageWidth="1920" pageHeight="1200" math="0" shadow="0">
            <root>
                <mxCell id="0"/>
                <mxCell id="1" parent="0"/>
                <mxCell id="DcK1PtTfnltTrllMDDhU-15" style="edgeStyle=none;html=1;" edge="1" parent="1" source="2" target="DcK1PtTfnltTrllMDDhU-9">
                    <mxGeometry relative="1" as="geometry"/>
                </mxCell>
                <mxCell id="DcK1PtTfnltTrllMDDhU-21" value="" style="group" vertex="1" connectable="0" parent="1">
                    <mxGeometry x="780" y="280" width="220" height="250" as="geometry"/>
                </mxCell>
                <mxCell id="2" value="&lt;div style=&quot;&quot;&gt;&lt;span style=&quot;background-color: initial;&quot;&gt;user_id&lt;/span&gt;&lt;br&gt;&lt;/div&gt;&lt;div style=&quot;&quot;&gt;&lt;span style=&quot;background-color: initial;&quot;&gt;name&lt;/span&gt;&lt;/div&gt;&lt;div style=&quot;&quot;&gt;&lt;span style=&quot;background-color: initial;&quot;&gt;email&lt;/span&gt;&lt;/div&gt;&lt;div style=&quot;&quot;&gt;&lt;span style=&quot;background-color: initial;&quot;&gt;password&lt;/span&gt;&lt;/div&gt;&lt;div style=&quot;&quot;&gt;&lt;span style=&quot;background-color: initial;&quot;&gt;role: admin, teacher, student&lt;/span&gt;&lt;/div&gt;&lt;div style=&quot;&quot;&gt;&lt;span style=&quot;background-color: initial;&quot;&gt;mentor_of: null | class&lt;/span&gt;&lt;/div&gt;&lt;div style=&quot;&quot;&gt;&lt;span style=&quot;background-color: initial;&quot;&gt;classrep_of: null | class&lt;/span&gt;&lt;/div&gt;&lt;div style=&quot;&quot;&gt;dependancy: role: [&quot;teacher&quot;] : course[]&lt;/div&gt;&lt;div style=&quot;&quot;&gt;dependancy: role: [&quot;student&quot;] : course&lt;/div&gt;&lt;div style=&quot;&quot;&gt;reminders&lt;/div&gt;" style="whiteSpace=wrap;html=1;aspect=fixed;align=center;" vertex="1" parent="DcK1PtTfnltTrllMDDhU-21">
                    <mxGeometry y="30" width="220" height="220" as="geometry"/>
                </mxCell>
                <mxCell id="DcK1PtTfnltTrllMDDhU-2" value="Users Schema" style="text;html=1;align=center;verticalAlign=middle;resizable=0;points=[];autosize=1;strokeColor=none;fillColor=none;" vertex="1" parent="DcK1PtTfnltTrllMDDhU-21">
                    <mxGeometry x="60" width="100" height="30" as="geometry"/>
                </mxCell>
                <mxCell id="DcK1PtTfnltTrllMDDhU-22" value="" style="group" vertex="1" connectable="0" parent="1">
                    <mxGeometry x="1100" y="300" width="170" height="200" as="geometry"/>
                </mxCell>
                <mxCell id="DcK1PtTfnltTrllMDDhU-8" value="Reminders" style="text;html=1;align=center;verticalAlign=middle;resizable=0;points=[];autosize=1;strokeColor=none;fillColor=none;" vertex="1" parent="DcK1PtTfnltTrllMDDhU-22">
                    <mxGeometry x="45" width="80" height="30" as="geometry"/>
                </mxCell>
                <mxCell id="DcK1PtTfnltTrllMDDhU-9" value="rem_id&lt;br&gt;title&lt;br&gt;description&lt;br&gt;priority: high-med-low" style="whiteSpace=wrap;html=1;aspect=fixed;" vertex="1" parent="DcK1PtTfnltTrllMDDhU-22">
                    <mxGeometry y="30" width="170" height="170" as="geometry"/>
                </mxCell>
                <mxCell id="DcK1PtTfnltTrllMDDhU-23" value="" style="group" vertex="1" connectable="0" parent="1">
                    <mxGeometry x="470" y="280" width="170" height="200" as="geometry"/>
                </mxCell>
                <mxCell id="DcK1PtTfnltTrllMDDhU-6" value="Announcements" style="text;html=1;align=center;verticalAlign=middle;resizable=0;points=[];autosize=1;strokeColor=none;fillColor=none;" vertex="1" parent="DcK1PtTfnltTrllMDDhU-23">
                    <mxGeometry x="30" width="110" height="30" as="geometry"/>
                </mxCell>
                <mxCell id="DcK1PtTfnltTrllMDDhU-7" value="ann_id&lt;br&gt;user_id&lt;br&gt;title&lt;br&gt;posted_by: roles&lt;br&gt;type: general, class&lt;br&gt;priority: high-med-low" style="whiteSpace=wrap;html=1;aspect=fixed;" vertex="1" parent="DcK1PtTfnltTrllMDDhU-23">
                    <mxGeometry y="30" width="170" height="170" as="geometry"/>
                </mxCell>
                <mxCell id="DcK1PtTfnltTrllMDDhU-24" value="" style="group" vertex="1" connectable="0" parent="1">
                    <mxGeometry x="630" width="220" height="250" as="geometry"/>
                </mxCell>
                <mxCell id="DcK1PtTfnltTrllMDDhU-3" value="Questionaires" style="text;html=1;align=center;verticalAlign=middle;resizable=0;points=[];autosize=1;strokeColor=none;fillColor=none;rotation=0;" vertex="1" parent="DcK1PtTfnltTrllMDDhU-24">
                    <mxGeometry x="60" width="100" height="30" as="geometry"/>
                </mxCell>
                <mxCell id="DcK1PtTfnltTrllMDDhU-5" value="quest_id&lt;br&gt;user_id&lt;br&gt;title&lt;br&gt;description&lt;br&gt;type: department, course, sem general&lt;br&gt;verified: boolean&lt;br&gt;reported: boolean&lt;br&gt;comments" style="whiteSpace=wrap;html=1;aspect=fixed;" vertex="1" parent="DcK1PtTfnltTrllMDDhU-24">
                    <mxGeometry y="30" width="220" height="220" as="geometry"/>
                </mxCell>
                <mxCell id="DcK1PtTfnltTrllMDDhU-25" value="" style="group" vertex="1" connectable="0" parent="1">
                    <mxGeometry x="790" y="720" width="170" height="200" as="geometry"/>
                </mxCell>
                <mxCell id="DcK1PtTfnltTrllMDDhU-10" value="&lt;div style=&quot;&quot;&gt;course_id&lt;/div&gt;&lt;div style=&quot;&quot;&gt;department_id&lt;/div&gt;&lt;div style=&quot;&quot;&gt;name&lt;/div&gt;&lt;div style=&quot;&quot;&gt;&lt;span style=&quot;background-color: initial;&quot;&gt;sem&lt;/span&gt;&lt;/div&gt;&lt;div style=&quot;&quot;&gt;&lt;br&gt;&lt;/div&gt;&lt;div style=&quot;&quot;&gt;&lt;br&gt;&lt;/div&gt;" style="whiteSpace=wrap;html=1;aspect=fixed;align=center;" vertex="1" parent="DcK1PtTfnltTrllMDDhU-25">
                    <mxGeometry y="30" width="170" height="170" as="geometry"/>
                </mxCell>
                <mxCell id="DcK1PtTfnltTrllMDDhU-11" value="Classes" style="text;html=1;align=center;verticalAlign=middle;resizable=0;points=[];autosize=1;strokeColor=none;fillColor=none;" vertex="1" parent="DcK1PtTfnltTrllMDDhU-25">
                    <mxGeometry x="50" width="70" height="30" as="geometry"/>
                </mxCell>
                <mxCell id="DcK1PtTfnltTrllMDDhU-28" value="" style="group" vertex="1" connectable="0" parent="1">
                    <mxGeometry x="370" y="15" width="190" height="220" as="geometry"/>
                </mxCell>
                <mxCell id="DcK1PtTfnltTrllMDDhU-29" value="Comments" style="text;html=1;align=center;verticalAlign=middle;resizable=0;points=[];autosize=1;strokeColor=none;fillColor=none;rotation=0;" vertex="1" parent="DcK1PtTfnltTrllMDDhU-28">
                    <mxGeometry x="60.45454545454545" width="80" height="30" as="geometry"/>
                </mxCell>
                <mxCell id="DcK1PtTfnltTrllMDDhU-30" value="user_id&lt;br&gt;text&lt;br&gt;verified_by" style="whiteSpace=wrap;html=1;aspect=fixed;" vertex="1" parent="DcK1PtTfnltTrllMDDhU-28">
                    <mxGeometry y="26.4" width="190" height="190" as="geometry"/>
                </mxCell>
                <mxCell id="DcK1PtTfnltTrllMDDhU-31" value="" style="edgeStyle=none;html=1;" edge="1" parent="1" source="DcK1PtTfnltTrllMDDhU-5" target="DcK1PtTfnltTrllMDDhU-30">
                    <mxGeometry relative="1" as="geometry"/>
                </mxCell>
                <mxCell id="DcK1PtTfnltTrllMDDhU-32" value="" style="group" vertex="1" connectable="0" parent="1">
                    <mxGeometry x="600" y="720" width="170" height="200" as="geometry"/>
                </mxCell>
                <mxCell id="DcK1PtTfnltTrllMDDhU-33" value="&lt;div style=&quot;&quot;&gt;dep_id&lt;/div&gt;&lt;div style=&quot;&quot;&gt;name&lt;/div&gt;&lt;div style=&quot;&quot;&gt;programs&lt;/div&gt;" style="whiteSpace=wrap;html=1;aspect=fixed;align=center;" vertex="1" parent="DcK1PtTfnltTrllMDDhU-32">
                    <mxGeometry y="30" width="170" height="170" as="geometry"/>
                </mxCell>
                <mxCell id="DcK1PtTfnltTrllMDDhU-34" value="Departments" style="text;html=1;align=center;verticalAlign=middle;resizable=0;points=[];autosize=1;strokeColor=none;fillColor=none;" vertex="1" parent="DcK1PtTfnltTrllMDDhU-32">
                    <mxGeometry x="40" width="90" height="30" as="geometry"/>
                </mxCell>
                <mxCell id="DcK1PtTfnltTrllMDDhU-35" value="" style="group" vertex="1" connectable="0" parent="1">
                    <mxGeometry x="410" y="720" width="170" height="200" as="geometry"/>
                </mxCell>
                <mxCell id="DcK1PtTfnltTrllMDDhU-36" value="&lt;div style=&quot;&quot;&gt;program_id&lt;/div&gt;&lt;div style=&quot;&quot;&gt;name&amp;nbsp;&lt;/div&gt;&lt;div style=&quot;&quot;&gt;semesters: number&lt;/div&gt;&lt;div style=&quot;&quot;&gt;subjects: {&lt;/div&gt;&lt;div style=&quot;&quot;&gt;sem1: {&lt;/div&gt;&lt;div style=&quot;&quot;&gt;sub_id, name},..}&lt;/div&gt;" style="whiteSpace=wrap;html=1;aspect=fixed;align=center;" vertex="1" parent="DcK1PtTfnltTrllMDDhU-35">
                    <mxGeometry y="30" width="170" height="170" as="geometry"/>
                </mxCell>
                <mxCell id="DcK1PtTfnltTrllMDDhU-37" value="Programs" style="text;html=1;align=center;verticalAlign=middle;resizable=0;points=[];autosize=1;strokeColor=none;fillColor=none;" vertex="1" parent="DcK1PtTfnltTrllMDDhU-35">
                    <mxGeometry x="45" width="80" height="30" as="geometry"/>
                </mxCell>
            </root>
        </mxGraphModel>
    </diagram>
</mxfile>